<svg width="60" height="29" viewBox="0 0 60 29" xmlns="http://www.w3.org/2000/svg">
<path fill-rule="evenodd" clip-rule="evenodd" d="M54.6835 11.3434C54.1654 12.2956 53.3976 12.9489 52.3814 13.3053C51.3691 13.6598 50.4075 13.6148 49.4948 13.1727C48.579 12.7133 47.9813 11.991 47.7 11.0038C47.4155 10.0077 47.5271 9.02584 48.0352 8.0565C48.5495 7.10318 49.3099 6.44146 50.318 6.07248C51.3295 5.70235 52.2934 5.73552 53.2088 6.17425C54.1417 6.62976 54.7533 7.36314 55.0417 8.37364C55.3277 9.37537 55.2075 10.3657 54.6835 11.3434ZM53.211 1.06254C50.8972 0.637521 48.7578 1.12429 46.7944 2.51219C44.8407 3.89322 43.6311 5.75645 43.1547 8.10035C42.6862 10.4378 43.0757 12.5812 44.3202 14.5424C45.5596 16.4956 47.3013 17.7104 49.5554 18.1876C51.8192 18.6599 53.9473 18.2437 55.9425 16.9282C57.947 15.6059 59.2241 13.7598 59.7624 11.3865C60.2988 8.99042 59.9279 6.7765 58.647 4.75813C57.361 2.73175 55.5453 1.499 53.211 1.06254ZM0.152527 12.5704V8.2509L11.9293 6.70504V10.3573L5.74516 19.0232L12.4117 18.2896V22.725L0 23.9785V20.4145L6.03741 11.8714L0.152527 12.5704ZM24.9477 4.58711V12.8242C24.9477 13.8405 24.6144 14.7466 23.9497 15.5417C23.2955 16.3338 22.5045 16.7798 21.579 16.8812C20.6562 16.9826 19.8694 16.7116 19.2171 16.07C18.5668 15.4304 18.2424 14.6105 18.2424 13.6079V5.47948L14.083 6.03296V14.094C14.083 16.3041 14.8035 18.125 16.2519 19.5625C17.708 20.9904 19.4815 21.6034 21.579 21.393C23.1211 21.2386 24.2458 20.7038 24.9477 19.7882V20.3577C24.9477 21.3731 24.6144 22.2743 23.9497 23.0595C23.2955 23.8417 22.5045 24.2755 21.579 24.3632C21.579 24.3632 19.1249 24.6708 17.4843 22.9185L14.9024 25.1328L14.0703 25.8464C14.0703 25.8464 16.6759 28.902 20.7837 28.9138C20.7845 28.9123 20.7852 28.9108 20.7864 28.9092C21.0468 28.9146 21.31 28.9119 21.579 28.889C23.6761 28.7106 25.4841 27.7493 26.9968 25.9977C28.518 24.2545 29.2873 22.2339 29.2966 19.9441V4.00809L24.9477 4.58711ZM41.5884 2.45392V6.36311C37.2131 6.75498 36.6027 9.94448 36.5202 10.9909L36.3865 19.9395L32.3329 20.2887V3.66804L36.6384 3.1031L36.6271 3.8533C36.8174 3.68976 37.0248 3.5491 37.2364 3.42979V3.42941C38.7301 2.48441 41.5884 2.45392 41.5884 2.45392Z" fill="white"/>
</svg>